<?xml version="1.0" encoding="UTF-8"?><svg id="Layer_2" xmlns="http://www.w3.org/2000/svg" viewBox="0 0 290.24 187.11"><defs><style>.cls-1{fill:#939393;}</style></defs><g id="Layer_1-2"><g><path class="cls-1" d="M288.4,47.01c-.23-.2-.12-.81-.12-1.23,.02-8.01,.07-16.02,.06-24.03-.01-9.85-4.66-16-14.08-18.78-.66-.2-1.53-.38-1.86-.86-1.27-1.85-3.06-2.13-5.05-2.1-1.91,.03-3.84,.11-5.74,0-1.78-.1-3.01,.46-3.77,2.11-1,2.2-.84,4.25,.58,6.22,1.12,1.54,2.6,1.83,4.34,1.37,2.05-.54,4.14-.99,6.16-1.62,.99-.31,1.85-1.02,2.82-1.4,.75-.3,1.69-.68,2.39-.49,6.59,1.85,10.67,6.38,10.98,13.29,.39,8.49,.14,17.01,.1,25.52,0,.61-.32,1.52-.78,1.79-1.91,1.11-2.38,2.8-2.53,4.83-.41,5.49-1.48,10.84-4.36,15.61-3.84,6.37-9.83,9.54-16.93,10.95-12.19,2.42-21-1.36-27.55-11.93-1.23-1.99-2.08-4.21-3.35-6.16-.73-1.1-1.96-1.88-2.98-2.78-.68-.61-1.74-1.05-2.01-1.8-2.95-7.97-5.97-15.93-8.56-24.02-1.78-5.54-.15-10.51,4.06-14.56,1.51-1.45,2.92-3.1,5.41-1.62,.63,.37,1.67,.1,2.52,.04,1.55-.12,3.1-.36,4.65-.46,3.1-.19,4.19-.84,4.79-2.97,.7-2.48-.09-5.04-2.21-6.37-.74-.46-1.91-.7-2.72-.47-2.51,.72-5,1.61-7.4,2.66-.97,.42-1.76,1.34-2.52,2.14-.94,.98-1.61,2.26-2.66,3.07-6.48,5.02-9.21,11.96-6.84,19.56,2.51,8.04,5.57,15.92,8.46,23.84,.46,1.27,.98,2.31,.32,3.78-.38,.88-.14,2.35,.37,3.24,2.33,4.12,4.54,8.37,7.39,12.13,4.32,5.73,10.21,9.42,17.32,10.77,3.11,.59,6.32,.63,9.7,.94,.12,.72,.37,1.61,.42,2.5,.31,5.09,.54,10.19,.87,15.28,.07,.95,.47,1.88,.69,2.83,.25,1.09,.6,2.18,.67,3.29,.05,.89-.22,1.82-.42,2.72-3.15,14.04-10.79,23.63-25.67,26.27-3.62,.65-6.06,3.06-7.03,6.67-.6,2.26-1.03,4.56-1.44,6.86-.92,5.1-1.77,10.21-2.65,15.31-.4-.71-.56-1.39-.63-2.09-.81-8.17-1.6-16.34-2.41-24.51-1.51-15.25-3.04-30.49-4.54-45.74-.14-1.37-.4-2.69-2.04-2.74-1.67-.04-1.97,1.29-2.15,2.64-1.99,15.04-3.99,30.08-5.99,45.12-.09,.62-.31,1.22-.59,2.29-1.04-2.93-1.73-5.4-2.8-7.68-.48-1-1.63-2.07-2.68-2.33-1.72-.43-2.95,.67-3.41,2.42-.72,2.73-1.37,5.48-2.11,8.21-.72,2.65-1.52,5.29-2.42,8.4-.99-2.52-1.81-4.53-2.59-6.56-1.7-4.42-4.95-6.56-9.64-6.58-2.69-.02-5.39-.01-8.09-.02-3.88-.02-5.53-1.16-6.86-4.78-1.76-4.79-3.53-9.58-5.24-14.39-.59-1.68-1.47-2.99-3.41-2.95-1.84,.04-2.63,1.35-3.19,2.93-1.77,4.94-3.59,9.86-5.4,14.79-1,2.72-2.83,4.22-5.84,4.45-5.22,.42-8.5,3.56-9.46,8.79-.57,3.14-1.08,6.29-1.63,9.44-.57,3.27-1.15,6.55-1.73,9.83-1.8-16.44-3.21-32.84-4.6-49.23-1.05-12.37-2.08-24.74-3.13-37.11-.11-1.3-.28-2.68-2.03-2.73-1.76-.05-1.98,1.29-2.12,2.61-1.74,16.43-3.46,32.87-5.2,49.31-.42,3.96-.87,7.93-1.3,11.89-1.2-1.91-1.92-3.87-2.6-5.85-.57-1.65-1.44-3.03-3.39-2.98-1.95,.04-2.79,1.42-3.22,3.14-.31,1.24-.65,2.47-.97,3.7-1.01,3.94-2.02,7.89-3.03,11.83-.96-1-1.47-2.04-1.89-3.12-3.52-8.88-4.24-9.32-13.67-9.35-9.09-.02-16.95-3.62-24.3-8.6-1.19-.81-2.33-1.71-3.66-2.7,1.82-1.21,3.35-2.21,4.87-3.24,11.96-8.15,23.12-17.2,31.74-28.99,7.1-9.7,11.43-20.46,11.15-32.62-.22-9.86-3.95-17.96-13.71-21.8-8.46-3.34-16.46-1.53-23.81,3.5-1.79,1.23-3.37,2.77-5.17,4.28-.79-.83-1.53-1.68-2.33-2.46-6.9-6.73-14.93-9.45-24.34-6.4-9.75,3.15-15.1,10.1-16.57,20.13-.98,6.63-.11,13.14,1.62,19.54,3.61,13.37,10.22,25.2,18.87,35.9,3.28,4.06,6.97,7.8,10.73,11.98-7.18,3.91-14.34,7.82-21.47,11.7-.45-.55-.63-.76-.8-.99-3.43-4.61-8.32-6.56-13.37-5.32-6.52,1.59-10.57,7.68-9.53,14.31,.99,6.29,6.94,11.01,13.25,10.48,6.78-.56,11.88-6.03,11.67-12.8-.05-1.66,.56-2.32,1.89-3.03,6.51-3.46,13-6.96,19.4-10.63,1.72-.98,2.77-1.01,4.4,.23,9.86,7.5,20.62,12.47,33.44,11.32,2.25-.2,3.91,1.06,4.75,3.2,1.16,2.96,2.37,5.91,3.5,8.88,.61,1.6,1.53,2.76,3.4,2.63,1.85-.12,2.66-1.34,3.07-3.02,.88-3.56,1.81-7.12,2.76-10.67,.41-1.51,.93-3,1.56-5.01,1.13,3.16,2.06,5.75,2.99,8.35,.57,1.59,1.66,2.49,3.39,2.3,1.84-.2,2.68-1.42,2.87-3.16,1-9.38,1.99-18.77,2.99-28.15,.56-5.27,1.13-10.54,1.69-15.81,.09,0,.18,0,.26,.01,.05,.17,.13,.34,.14,.52,2.01,23.68,4.02,47.35,6.03,71.03,.28,3.32,.47,6.66,.94,9.95,.11,.82,1,1.95,1.76,2.17,1.34,.4,1.98-.73,2.2-1.98,.07-.34,.12-.7,.18-1.04,1.97-11.47,3.91-22.93,5.9-34.39,.69-3.93,2.36-5.43,6.37-5.85,4.22-.44,7.09-2.65,8.62-6.58,1.1-2.84,2.1-5.72,3.16-8.58,.6-1.63,1.22-3.26,2.03-5.39,1.75,4.79,3.28,9.04,4.86,13.26,1.93,5.13,5.08,7.29,10.5,7.31,2.62,0,5.25-.03,7.87,0,3.66,.05,5.2,1.13,6.57,4.6,1.06,2.7,2.09,5.41,3.17,8.11,.56,1.42,1.7,2.35,3.13,1.94,1.06-.31,2.46-1.24,2.75-2.18,1.49-4.93,2.67-9.96,3.97-14.95,.11-.4,.38-.76,.73-1.43,1.04,2.95,1.96,5.54,2.85,8.14,.59,1.72,1.72,2.56,3.56,2.27,1.69-.26,2.55-1.25,2.78-2.98,1.24-9.34,2.54-18.68,3.83-28.02,.21-1.54,.48-3.07,.73-4.61,1.75,13.45,3.16,26.83,4.51,40.23,1,9.95,1.91,19.91,2.86,29.86,.12,1.25,.54,2.3,1.96,2.36,1.57,.07,1.97-1.12,2.18-2.38,1.71-10.42,3.39-20.84,5.17-31.25,.39-2.29,1.03-4.56,1.77-6.76,.59-1.73,2.1-2.44,3.87-2.93,3.59-.99,7.36-1.78,10.61-3.5,10.94-5.82,16.2-15.64,18.24-27.48,.31-1.78,.27-3.57,1.98-4.9,.67-.52,.91-1.91,.92-2.92,.04-3.47-.02-6.95-.23-10.41-.17-2.96-.61-5.9-.92-8.8,.19-.15,.29-.28,.41-.32,.53-.19,1.07-.36,1.61-.53,8.61-2.75,15.23-8,18.83-16.32,1.83-4.23,2.78-8.89,3.78-13.42,.6-2.75,1.44-5.78-1.22-8.18ZM12.55,154.78c-4.63,.03-8.55-3.83-8.61-8.48-.06-4.8,3.75-8.73,8.52-8.78,4.78-.05,8.69,3.8,8.7,8.58,.01,4.8-3.81,8.65-8.61,8.68ZM57.28,55.19c.71,2.59,1.32,3.82,2.03,6.4,.29,1.05,.58,2.11,.87,3.16,.48,1.96-1.01,3.85-3.03,3.85s-3.51-1.89-3.04-3.85c1.03-3.64,2.15-5.92,3.17-9.57Zm-7.05,70.12c-.99,.64-1.57,.47-2.36-.28-13.87-13.08-23.91-28.51-28.76-47.09-1.66-6.38-2.29-12.88-.62-19.34,3.49-13.45,19.52-18.91,29.88-11.62,.81,.58,1.63,1.15,2.38,1.79,1.9,1.62,2.94,2.49,3.38,3.71,.17,.46,.33,1.19-1.31,5.84-1.31,3.74-2.03,5.02-2,7.36,.01,.88,.04,1.67,.42,2.62,.85,2.12,2.86,3.59,5.14,3.84,1.36,.15,2.42-.2,2.86-.35,.18-.06,2.46-.89,3.62-2.81,2.15-3.58,.02-10.28-1.72-13.13-.23-.38-.9-1.4-.69-2.59,.15-.86,.76-1.58,1.68-2.37,6.36-5.51,13.54-8.09,21.83-5.52,7.32,2.27,10.74,7.93,11.89,15.18,.26,1.61,.27,3.25,.39,4.88-.51,13.29-6.28,24.27-14.78,34.06-8.97,10.33-19.8,18.43-31.22,25.82Z"/><path class="cls-1" d="M12.43,140.4c-3.23,.07-5.87,2.82-5.84,6.08,.02,3.26,2.71,5.86,6.03,5.84,3.35-.02,5.9-2.58,5.9-5.93,0-3.37-2.74-6.07-6.09-5.99Zm.11,8.52c-1.41,0-2.55-1.15-2.55-2.56s1.14-2.55,2.55-2.55,2.56,1.14,2.56,2.55-1.15,2.56-2.56,2.56Z"/></g></g></svg>