<svg width="1220" height="746" viewBox="0 0 1220 746" fill="none" xmlns="http://www.w3.org/2000/svg">
<mask id="mask0_40_122" style="mask-type:luminance" maskUnits="userSpaceOnUse" x="518" y="0" width="79" height="78">
<path d="M557.658 77.6951C579.104 77.6951 596.489 60.3668 596.489 38.9912C596.489 17.6156 579.104 0.287292 557.658 0.287292C536.213 0.287292 518.828 17.6156 518.828 38.9912C518.828 60.3668 536.213 77.6951 557.658 77.6951Z" fill="white"/>
</mask>
<g mask="url(#mask0_40_122)">
<mask id="mask1_40_122" style="mask-type:luminance" maskUnits="userSpaceOnUse" x="-1731" y="-1539" width="6993" height="4840">
<path d="M5261.06 -1538.72H-1730.87V3300.96H5261.06V-1538.72Z" fill="white"/>
</mask>
<g mask="url(#mask1_40_122)">
<path d="M620.75 -23.8962H494.513V101.93H620.75V-23.8962Z" fill="#FF9C84"/>
</g>
</g>
<mask id="mask2_40_122" style="mask-type:luminance" maskUnits="userSpaceOnUse" x="622" y="0" width="79" height="78">
<path d="M661.224 77.6951C682.669 77.6951 700.054 60.3667 700.054 38.9911C700.054 17.6156 682.669 0.287231 661.224 0.287231C639.778 0.287231 622.394 17.6156 622.394 38.9911C622.394 60.3667 639.778 77.6951 661.224 77.6951Z" fill="white"/>
</mask>
<g mask="url(#mask2_40_122)">
<mask id="mask3_40_122" style="mask-type:luminance" maskUnits="userSpaceOnUse" x="-1731" y="-1539" width="6993" height="4840">
<path d="M5261.06 -1538.72H-1730.87V3300.96H5261.06V-1538.72Z" fill="white"/>
</mask>
<g mask="url(#mask3_40_122)">
<path d="M724.367 -23.8964H598.13V101.93H724.367V-23.8964Z" fill="#F95932"/>
</g>
</g>
<mask id="mask4_40_122" style="mask-type:luminance" maskUnits="userSpaceOnUse" x="518" y="103" width="79" height="78">
<path d="M557.658 180.973C579.104 180.973 596.489 163.645 596.489 142.27C596.489 120.894 579.104 103.566 557.658 103.566C536.213 103.566 518.828 120.894 518.828 142.27C518.828 163.645 536.213 180.973 557.658 180.973Z" fill="white"/>
</mask>
<g mask="url(#mask4_40_122)">
<mask id="mask5_40_122" style="mask-type:luminance" maskUnits="userSpaceOnUse" x="-1731" y="-1539" width="6993" height="4840">
<path d="M5261.06 -1538.72H-1730.87V3300.96H5261.06V-1538.72Z" fill="white"/>
</mask>
<g mask="url(#mask5_40_122)">
<path d="M620.75 79.3313H494.513V205.157H620.75V79.3313Z" fill="#0423DD"/>
</g>
</g>
<mask id="mask6_40_122" style="mask-type:luminance" maskUnits="userSpaceOnUse" x="622" y="103" width="79" height="78">
<path d="M661.224 180.974C682.669 180.974 700.054 163.645 700.054 142.27C700.054 120.894 682.669 103.566 661.224 103.566C639.778 103.566 622.394 120.894 622.394 142.27C622.394 163.645 639.778 180.974 661.224 180.974Z" fill="white"/>
</mask>
<g mask="url(#mask6_40_122)">
<mask id="mask7_40_122" style="mask-type:luminance" maskUnits="userSpaceOnUse" x="-1731" y="-1539" width="6993" height="4840">
<path d="M5261.06 -1538.72H-1730.87V3300.96H5261.06V-1538.72Z" fill="white"/>
</mask>
<g mask="url(#mask7_40_122)">
<path d="M724.367 79.3313H598.13V205.157H724.367V79.3313Z" fill="#F95932"/>
</g>
</g>
<mask id="mask8_40_122" style="mask-type:luminance" maskUnits="userSpaceOnUse" x="518" y="206" width="79" height="79">
<path d="M557.658 284.201C579.104 284.201 596.489 266.872 596.489 245.497C596.489 224.121 579.104 206.793 557.658 206.793C536.213 206.793 518.828 224.121 518.828 245.497C518.828 266.872 536.213 284.201 557.658 284.201Z" fill="white"/>
</mask>
<g mask="url(#mask8_40_122)">
<mask id="mask9_40_122" style="mask-type:luminance" maskUnits="userSpaceOnUse" x="-1731" y="-1539" width="6993" height="4840">
<path d="M5261.06 -1538.72H-1730.87V3300.96H5261.06V-1538.72Z" fill="white"/>
</mask>
<g mask="url(#mask9_40_122)">
<path d="M620.75 182.609H494.513V308.435H620.75V182.609Z" fill="#F95932"/>
</g>
</g>
<mask id="mask10_40_122" style="mask-type:luminance" maskUnits="userSpaceOnUse" x="415" y="103" width="78" height="78">
<path d="M454.093 180.974C475.538 180.974 492.923 163.645 492.923 142.27C492.923 120.894 475.538 103.566 454.093 103.566C432.648 103.566 415.263 120.894 415.263 142.27C415.263 163.645 432.648 180.974 454.093 180.974Z" fill="white"/>
</mask>
<g mask="url(#mask10_40_122)">
<mask id="mask11_40_122" style="mask-type:luminance" maskUnits="userSpaceOnUse" x="-1731" y="-1539" width="6993" height="4840">
<path d="M5261.06 -1538.72H-1730.87V3300.96H5261.06V-1538.72Z" fill="white"/>
</mask>
<g mask="url(#mask11_40_122)">
<path d="M517.186 79.3313H390.948V205.157H517.186V79.3313Z" fill="#F95932"/>
</g>
</g>
<mask id="mask12_40_122" style="mask-type:luminance" maskUnits="userSpaceOnUse" x="415" y="206" width="78" height="79">
<path d="M454.093 284.201C475.538 284.201 492.923 266.872 492.923 245.497C492.923 224.121 475.538 206.793 454.093 206.793C432.648 206.793 415.263 224.121 415.263 245.497C415.263 266.872 432.648 284.201 454.093 284.201Z" fill="white"/>
</mask>
<g mask="url(#mask12_40_122)">
<mask id="mask13_40_122" style="mask-type:luminance" maskUnits="userSpaceOnUse" x="-1731" y="-1539" width="6993" height="4840">
<path d="M5261.06 -1538.72H-1730.87V3300.96H5261.06V-1538.72Z" fill="white"/>
</mask>
<g mask="url(#mask13_40_122)">
<path d="M517.186 182.609H390.948V308.435H517.186V182.609Z" fill="#8A9AFF"/>
</g>
</g>
<mask id="mask14_40_122" style="mask-type:luminance" maskUnits="userSpaceOnUse" x="622" y="206" width="79" height="79">
<path d="M661.224 284.201C682.669 284.201 700.054 266.872 700.054 245.497C700.054 224.121 682.669 206.793 661.224 206.793C639.778 206.793 622.394 224.121 622.394 245.497C622.394 266.872 639.778 284.201 661.224 284.201Z" fill="white"/>
</mask>
<g mask="url(#mask14_40_122)">
<mask id="mask15_40_122" style="mask-type:luminance" maskUnits="userSpaceOnUse" x="-1731" y="-1539" width="6993" height="4840">
<path d="M5261.06 -1538.72H-1730.87V3300.96H5261.06V-1538.72Z" fill="white"/>
</mask>
<g mask="url(#mask15_40_122)">
<path d="M724.367 182.609H598.13V308.435H724.367V182.609Z" fill="#FF9C84"/>
</g>
</g>
<mask id="mask16_40_122" style="mask-type:luminance" maskUnits="userSpaceOnUse" x="726" y="103" width="78" height="78">
<path d="M764.839 180.973C786.285 180.973 803.67 163.645 803.67 142.27C803.67 120.894 786.285 103.566 764.839 103.566C743.394 103.566 726.009 120.894 726.009 142.27C726.009 163.645 743.394 180.973 764.839 180.973Z" fill="white"/>
</mask>
<g mask="url(#mask16_40_122)">
<mask id="mask17_40_122" style="mask-type:luminance" maskUnits="userSpaceOnUse" x="-1731" y="-1539" width="6993" height="4840">
<path d="M5261.06 -1538.72H-1730.87V3300.96H5261.06V-1538.72Z" fill="white"/>
</mask>
<g mask="url(#mask17_40_122)">
<path d="M827.933 79.3313H701.695V205.157H827.933V79.3313Z" fill="#8092FF"/>
</g>
</g>
<mask id="mask18_40_122" style="mask-type:luminance" maskUnits="userSpaceOnUse" x="726" y="206" width="78" height="79">
<path d="M764.839 284.201C786.285 284.201 803.67 266.872 803.67 245.497C803.67 224.121 786.285 206.793 764.839 206.793C743.394 206.793 726.009 224.121 726.009 245.497C726.009 266.872 743.394 284.201 764.839 284.201Z" fill="white"/>
</mask>
<g mask="url(#mask18_40_122)">
<mask id="mask19_40_122" style="mask-type:luminance" maskUnits="userSpaceOnUse" x="-1731" y="-1539" width="6993" height="4840">
<path d="M5261.06 -1538.72H-1730.87V3300.96H5261.06V-1538.72Z" fill="white"/>
</mask>
<g mask="url(#mask19_40_122)">
<path d="M827.933 182.609H701.695V308.435H827.933V182.609Z" fill="#F95932"/>
</g>
</g>
<mask id="mask20_40_122" style="mask-type:luminance" maskUnits="userSpaceOnUse" x="518" y="310" width="79" height="78">
<path d="M557.658 387.479C579.104 387.479 596.489 370.151 596.489 348.776C596.489 327.4 579.104 310.072 557.658 310.072C536.213 310.072 518.828 327.4 518.828 348.776C518.828 370.151 536.213 387.479 557.658 387.479Z" fill="white"/>
</mask>
<g mask="url(#mask20_40_122)">
<mask id="mask21_40_122" style="mask-type:luminance" maskUnits="userSpaceOnUse" x="-1731" y="-1539" width="6993" height="4840">
<path d="M5261.06 -1538.72H-1730.87V3300.96H5261.06V-1538.72Z" fill="white"/>
</mask>
<g mask="url(#mask21_40_122)">
<path d="M620.75 285.837H494.513V411.663H620.75V285.837Z" fill="#FF9C84"/>
</g>
</g>
<mask id="mask22_40_122" style="mask-type:luminance" maskUnits="userSpaceOnUse" x="622" y="310" width="79" height="78">
<path d="M661.224 387.479C682.669 387.479 700.054 370.151 700.054 348.776C700.054 327.4 682.669 310.072 661.224 310.072C639.778 310.072 622.394 327.4 622.394 348.776C622.394 370.151 639.778 387.479 661.224 387.479Z" fill="white"/>
</mask>
<g mask="url(#mask22_40_122)">
<mask id="mask23_40_122" style="mask-type:luminance" maskUnits="userSpaceOnUse" x="-1731" y="-1539" width="6993" height="4840">
<path d="M5261.06 -1538.72H-1730.87V3300.96H5261.06V-1538.72Z" fill="white"/>
</mask>
<g mask="url(#mask23_40_122)">
<path d="M724.367 285.837H598.13V411.663H724.367V285.837Z" fill="#0423DD"/>
</g>
</g>
<path d="M91.9015 729.791V734.791H96.9015H128.413H133.413V729.791V506.63H208.922H213.922V501.63V473.152V468.152H208.922H16.7656H11.7656V473.152V501.63V506.63H16.7656H91.9015V729.791Z" fill="black" stroke="black" stroke-width="10"/>
<path d="M565.185 729.791V734.791H570.185H601.725H606.725V729.791V506.63H682.22H687.22V501.63V473.152V468.152H682.22H490.063H485.063V473.152V501.63V506.63H490.063H565.185V729.791Z" fill="black" stroke="black" stroke-width="10"/>
<path d="M915.19 729.791V734.791H920.19H951.755H956.755V729.791V473.152V468.152H951.755H920.19H915.19V473.152V578.567H776.819V473.152V468.152H771.819H740.254H735.254V473.152V729.791V734.791H740.254H771.819H776.819V729.791V617.045H915.19V729.791Z" fill="black" stroke="black" stroke-width="10"/>
<path d="M1151.37 732.428L1152.84 734.754L1155.59 734.757L1192.91 734.791L1202.18 734.799L1197.1 727.051L1132.88 629.024C1148.31 626.126 1162.84 618.931 1174.06 607.463C1187.28 593.958 1195.64 574.789 1195.64 550.497C1195.64 525.607 1186.79 504.91 1171.51 490.452C1156.26 476.023 1134.97 468.152 1110.65 468.152H1008.5H1003.5V473.152V729.757V734.757H1008.5H1040.13H1045.13V729.757V632.943H1088.49L1151.37 732.428ZM1106.8 506.626C1120.78 506.626 1132.25 511.16 1140.2 518.714C1148.12 526.247 1152.88 537.113 1152.88 550.497C1152.88 563.667 1148.12 574.647 1140.16 582.341C1132.19 590.046 1120.71 594.741 1106.77 594.741H1045.13V506.626H1106.8Z" fill="black" stroke="black" stroke-width="10"/>
<path d="M438.32 473.152V468.152H433.32H266.956H261.956V473.152V502.814V507.814H266.956H433.32H438.32V502.814V473.152Z" fill="#F95932" stroke="#F95932" stroke-width="10"/>
<path d="M438.32 585.351V580.351H433.32H266.956H261.956V585.351V613.723V618.723H266.956H433.32H438.32V613.723V585.351Z" fill="#FF9C84" stroke="#FF9C84" stroke-width="10"/>
<path d="M438.32 701.419V696.419H433.32H266.956H261.956V701.419V729.791V734.791H266.956H433.32H438.32V729.791V701.419Z" fill="#8092FF" stroke="#8092FF" stroke-width="10"/>
</svg>
