<svg width="1229" height="220" viewBox="0 0 1229 220" fill="none" xmlns="http://www.w3.org/2000/svg">
<mask id="mask0_55_124" style="mask-type:luminance" maskUnits="userSpaceOnUse" x="58" y="0" width="45" height="44">
<path d="M80.2243 43.611C92.3065 43.611 102.101 33.8483 102.101 21.8055C102.101 9.76266 92.3065 0 80.2243 0C68.1421 0 58.3477 9.76266 58.3477 21.8055C58.3477 33.8483 68.1421 43.611 80.2243 43.611Z" fill="white"/>
</mask>
<g mask="url(#mask0_55_124)">
<mask id="mask1_55_124" style="mask-type:luminance" maskUnits="userSpaceOnUse" x="-1210" y="-868" width="3941" height="2728">
<path d="M2730.08 -867.062H-1209.12V1859.57H2730.08V-867.062Z" fill="white"/>
</mask>
<g mask="url(#mask1_55_124)">
<path d="M115.771 -13.6248H44.6494V57.2645H115.771V-13.6248Z" fill="#FF9C84"/>
</g>
</g>
<mask id="mask2_55_124" style="mask-type:luminance" maskUnits="userSpaceOnUse" x="116" y="0" width="45" height="44">
<path d="M138.572 43.611C150.654 43.611 160.449 33.8483 160.449 21.8055C160.449 9.76266 150.654 0 138.572 0C126.49 0 116.695 9.76266 116.695 21.8055C116.695 33.8483 126.49 43.611 138.572 43.611Z" fill="white"/>
</mask>
<g mask="url(#mask2_55_124)">
<mask id="mask3_55_124" style="mask-type:luminance" maskUnits="userSpaceOnUse" x="-1210" y="-868" width="3941" height="2728">
<path d="M2730.08 -867.062H-1209.12V1859.57H2730.08V-867.062Z" fill="white"/>
</mask>
<g mask="url(#mask3_55_124)">
<path d="M174.146 -13.6248H103.025V57.2645H174.146V-13.6248Z" fill="#F95932"/>
</g>
</g>
<mask id="mask4_55_124" style="mask-type:luminance" maskUnits="userSpaceOnUse" x="58" y="58" width="45" height="44">
<path d="M80.2243 101.797C92.3065 101.797 102.101 92.0346 102.101 79.9918C102.101 67.949 92.3065 58.1863 80.2243 58.1863C68.1421 58.1863 58.3477 67.949 58.3477 79.9918C58.3477 92.0346 68.1421 101.797 80.2243 101.797Z" fill="white"/>
</mask>
<g mask="url(#mask4_55_124)">
<mask id="mask5_55_124" style="mask-type:luminance" maskUnits="userSpaceOnUse" x="-1210" y="-868" width="3941" height="2728">
<path d="M2730.08 -867.062H-1209.12V1859.57H2730.08V-867.062Z" fill="white"/>
</mask>
<g mask="url(#mask5_55_124)">
<path d="M115.771 44.5328H44.6494V115.422H115.771V44.5328Z" fill="#0423DD"/>
</g>
</g>
<mask id="mask6_55_124" style="mask-type:luminance" maskUnits="userSpaceOnUse" x="116" y="58" width="45" height="44">
<path d="M138.572 101.797C150.654 101.797 160.449 92.0346 160.449 79.9918C160.449 67.949 150.654 58.1863 138.572 58.1863C126.49 58.1863 116.695 67.949 116.695 79.9918C116.695 92.0346 126.49 101.797 138.572 101.797Z" fill="white"/>
</mask>
<g mask="url(#mask6_55_124)">
<mask id="mask7_55_124" style="mask-type:luminance" maskUnits="userSpaceOnUse" x="-1210" y="-868" width="3941" height="2728">
<path d="M2730.08 -867.062H-1209.12V1859.57H2730.08V-867.062Z" fill="white"/>
</mask>
<g mask="url(#mask7_55_124)">
<path d="M174.146 44.5328H103.025V115.422H174.146V44.5328Z" fill="#F95932"/>
</g>
</g>
<mask id="mask8_55_124" style="mask-type:luminance" maskUnits="userSpaceOnUse" x="58" y="116" width="45" height="44">
<path d="M80.2243 159.955C92.3065 159.955 102.101 150.192 102.101 138.149C102.101 126.106 92.3065 116.344 80.2243 116.344C68.1421 116.344 58.3477 126.106 58.3477 138.149C58.3477 150.192 68.1421 159.955 80.2243 159.955Z" fill="white"/>
</mask>
<g mask="url(#mask8_55_124)">
<mask id="mask9_55_124" style="mask-type:luminance" maskUnits="userSpaceOnUse" x="-1210" y="-868" width="3941" height="2728">
<path d="M2730.08 -867.062H-1209.12V1859.57H2730.08V-867.062Z" fill="white"/>
</mask>
<g mask="url(#mask9_55_124)">
<path d="M115.771 102.719H44.6494V173.608H115.771V102.719Z" fill="#F95932"/>
</g>
</g>
<mask id="mask10_55_124" style="mask-type:luminance" maskUnits="userSpaceOnUse" x="0" y="58" width="44" height="44">
<path d="M21.8767 101.797C33.9589 101.797 43.7534 92.0346 43.7534 79.9918C43.7534 67.949 33.9589 58.1863 21.8767 58.1863C9.79448 58.1863 0 67.949 0 79.9918C0 92.0346 9.79448 101.797 21.8767 101.797Z" fill="white"/>
</mask>
<g mask="url(#mask10_55_124)">
<mask id="mask11_55_124" style="mask-type:luminance" maskUnits="userSpaceOnUse" x="-1210" y="-868" width="3941" height="2728">
<path d="M2730.08 -867.062H-1209.12V1859.57H2730.08V-867.062Z" fill="white"/>
</mask>
<g mask="url(#mask11_55_124)">
<path d="M57.4229 44.5328H-13.6982V115.422H57.4229V44.5328Z" fill="#F95932"/>
</g>
</g>
<mask id="mask12_55_124" style="mask-type:luminance" maskUnits="userSpaceOnUse" x="0" y="116" width="44" height="44">
<path d="M21.8767 159.955C33.9589 159.955 43.7534 150.192 43.7534 138.149C43.7534 126.106 33.9589 116.344 21.8767 116.344C9.79448 116.344 0 126.106 0 138.149C0 150.192 9.79448 159.955 21.8767 159.955Z" fill="white"/>
</mask>
<g mask="url(#mask12_55_124)">
<mask id="mask13_55_124" style="mask-type:luminance" maskUnits="userSpaceOnUse" x="-1210" y="-868" width="3941" height="2728">
<path d="M2730.08 -867.062H-1209.12V1859.57H2730.08V-867.062Z" fill="white"/>
</mask>
<g mask="url(#mask13_55_124)">
<path d="M57.4229 102.719H-13.6982V173.608H57.4229V102.719Z" fill="#8A9AFF"/>
</g>
</g>
<mask id="mask14_55_124" style="mask-type:luminance" maskUnits="userSpaceOnUse" x="116" y="116" width="45" height="44">
<path d="M138.572 159.955C150.654 159.955 160.449 150.192 160.449 138.149C160.449 126.106 150.654 116.344 138.572 116.344C126.49 116.344 116.695 126.106 116.695 138.149C116.695 150.192 126.49 159.955 138.572 159.955Z" fill="white"/>
</mask>
<g mask="url(#mask14_55_124)">
<mask id="mask15_55_124" style="mask-type:luminance" maskUnits="userSpaceOnUse" x="-1210" y="-868" width="3941" height="2728">
<path d="M2730.08 -867.062H-1209.12V1859.57H2730.08V-867.062Z" fill="white"/>
</mask>
<g mask="url(#mask15_55_124)">
<path d="M174.146 102.719H103.025V173.608H174.146V102.719Z" fill="#FF9C84"/>
</g>
</g>
<mask id="mask16_55_124" style="mask-type:luminance" maskUnits="userSpaceOnUse" x="175" y="58" width="44" height="44">
<path d="M196.949 101.797C209.031 101.797 218.825 92.0346 218.825 79.9918C218.825 67.949 209.031 58.1863 196.949 58.1863C184.866 58.1863 175.072 67.949 175.072 79.9918C175.072 92.0346 184.866 101.797 196.949 101.797Z" fill="white"/>
</mask>
<g mask="url(#mask16_55_124)">
<mask id="mask17_55_124" style="mask-type:luminance" maskUnits="userSpaceOnUse" x="-1210" y="-868" width="3941" height="2728">
<path d="M2730.08 -867.062H-1209.12V1859.57H2730.08V-867.062Z" fill="white"/>
</mask>
<g mask="url(#mask17_55_124)">
<path d="M232.495 44.5328H161.374V115.422H232.495V44.5328Z" fill="#8092FF"/>
</g>
</g>
<mask id="mask18_55_124" style="mask-type:luminance" maskUnits="userSpaceOnUse" x="175" y="116" width="44" height="44">
<path d="M196.949 159.955C209.031 159.955 218.825 150.192 218.825 138.149C218.825 126.106 209.031 116.344 196.949 116.344C184.866 116.344 175.072 126.106 175.072 138.149C175.072 150.192 184.866 159.955 196.949 159.955Z" fill="white"/>
</mask>
<g mask="url(#mask18_55_124)">
<mask id="mask19_55_124" style="mask-type:luminance" maskUnits="userSpaceOnUse" x="-1210" y="-868" width="3941" height="2728">
<path d="M2730.08 -867.062H-1209.12V1859.57H2730.08V-867.062Z" fill="white"/>
</mask>
<g mask="url(#mask19_55_124)">
<path d="M232.495 102.719H161.374V173.608H232.495V102.719Z" fill="#F95932"/>
</g>
</g>
<mask id="mask20_55_124" style="mask-type:luminance" maskUnits="userSpaceOnUse" x="58" y="174" width="45" height="45">
<path d="M80.2243 218.141C92.3065 218.141 102.101 208.378 102.101 196.336C102.101 184.293 92.3065 174.53 80.2243 174.53C68.1421 174.53 58.3477 184.293 58.3477 196.336C58.3477 208.378 68.1421 218.141 80.2243 218.141Z" fill="white"/>
</mask>
<g mask="url(#mask20_55_124)">
<mask id="mask21_55_124" style="mask-type:luminance" maskUnits="userSpaceOnUse" x="-1210" y="-868" width="3941" height="2728">
<path d="M2730.08 -867.062H-1209.12V1859.57H2730.08V-867.062Z" fill="white"/>
</mask>
<g mask="url(#mask21_55_124)">
<path d="M115.771 160.877H44.6494V231.766H115.771V160.877Z" fill="#FF9C84"/>
</g>
</g>
<mask id="mask22_55_124" style="mask-type:luminance" maskUnits="userSpaceOnUse" x="116" y="174" width="45" height="45">
<path d="M138.572 218.141C150.654 218.141 160.449 208.378 160.449 196.336C160.449 184.293 150.654 174.53 138.572 174.53C126.49 174.53 116.695 184.293 116.695 196.336C116.695 208.378 126.49 218.141 138.572 218.141Z" fill="white"/>
</mask>
<g mask="url(#mask22_55_124)">
<mask id="mask23_55_124" style="mask-type:luminance" maskUnits="userSpaceOnUse" x="-1210" y="-868" width="3941" height="2728">
<path d="M2730.08 -867.062H-1209.12V1859.57H2730.08V-867.062Z" fill="white"/>
</mask>
<g mask="url(#mask23_55_124)">
<path d="M174.146 160.877H103.025V231.766H174.146V160.877Z" fill="#0423DD"/>
</g>
</g>
<path d="M355.384 209.618V214.618H360.384H384.818H389.818V209.618V37.7003H447.246H452.246V32.7003V10.6184V5.61841H447.246H298.246H293.246V10.6184V32.7003V37.7003H298.246H355.384V209.618Z" fill="black" stroke="black" stroke-width="10"/>
<path d="M722.373 209.618V214.618H727.373H751.829H756.829V209.618V37.7003H814.246H819.246V32.7003V10.6184V5.61841H814.246H665.246H660.246V10.6184V32.7003V37.7003H665.246H722.373V209.618Z" fill="black" stroke="black" stroke-width="10"/>
<path d="M993.77 209.618V214.618H998.77H1023.25H1028.25V209.618V10.6184V5.61841H1023.25H998.77H993.77V10.6184V91.235H888.722V10.6184V5.61841H883.722H859.246H854.246V10.6184V209.618V214.618H859.246H883.722H888.722V209.618V123.317H993.77V209.618Z" fill="black" stroke="black" stroke-width="10"/>
<path d="M1177.08 212.264L1178.55 214.59L1181.3 214.592L1210.24 214.618L1219.5 214.627L1214.43 206.878L1165.54 132.256C1177.1 129.782 1187.95 124.213 1196.43 115.549C1206.9 104.854 1213.48 89.7015 1213.48 70.5921C1213.48 51.0151 1206.51 34.6605 1194.42 23.2167C1182.35 11.8025 1165.56 5.61841 1146.46 5.61841H1067.25H1062.25V10.6184V209.592V214.592H1067.25H1091.77H1096.77V209.592V135.645H1128.65L1177.08 212.264ZM1143.47 37.6974C1154.06 37.6974 1162.67 41.1293 1168.59 46.7614C1174.49 52.3718 1178.08 60.493 1178.08 70.5921C1178.08 80.5231 1174.5 88.7382 1168.56 94.4772C1162.61 100.227 1154 103.776 1143.45 103.776H1096.77V37.6974H1143.47Z" fill="black" stroke="black" stroke-width="10"/>
<path d="M626.246 10.6184V5.61841H621.246H492.246H487.246V10.6184V33.6184V38.6184H492.246H621.246H626.246V33.6184V10.6184Z" fill="#F95932" stroke="#F95932" stroke-width="10"/>
<path d="M626.246 97.6184V92.6184H621.246H492.246H487.246V97.6184V119.618V124.618H492.246H621.246H626.246V119.618V97.6184Z" fill="#FF9C84" stroke="#FF9C84" stroke-width="10"/>
<path d="M626.246 187.618V182.618H621.246H492.246H487.246V187.618V209.618V214.618H492.246H621.246H626.246V209.618V187.618Z" fill="#8092FF" stroke="#8092FF" stroke-width="10"/>
</svg>
