<?xml version="1.0" encoding="UTF-8"?><svg id="Layer_2" xmlns="http://www.w3.org/2000/svg" viewBox="0 0 30.28 29.55"><defs><style>.cls-1{fill:#fff;}.cls-2{fill:#9bc9ff;}.cls-3{fill:#76c6e2;}.cls-4{fill:#388bd6;}</style></defs><g id="Layer_1-2"><g><g><g><path class="cls-2" d="M29.96,23.23c0,3.3-2.69,5.99-5.99,5.99-1.49,0-2.86-.54-3.91-1.45-.24-.2-.45-.42-.65-.65-.47-.55-.85-1.19-1.09-1.88-.04-.1-.08-.21-.1-.32-.03-.1-.06-.22-.09-.33-.1-.44-.16-.89-.16-1.35s.05-.92,.16-1.36c.03-.1,.05-.22,.09-.32,.03-.11,.06-.22,.1-.33,.1-.29,.23-.57,.38-.84,.05-.11,.12-.23,.19-.33,.17-.29,.37-.56,.6-.8,.1-.12,.21-.23,.32-.34,.6-.58,1.33-1.04,2.15-1.33,.11-.04,.22-.08,.33-.1,.1-.03,.22-.06,.32-.09,.44-.1,.89-.16,1.36-.16s.92,.05,1.35,.16c.11,.03,.23,.05,.33,.09,.11,.03,.22,.06,.32,.1,1.13,.4,2.11,1.14,2.82,2.09,.26,.35,.48,.73,.65,1.13,.33,.74,.51,1.56,.51,2.42Z"/><path class="cls-4" d="M29.74,20.68c-.19-.44-.42-.85-.69-1.2-.77-1.02-1.79-1.79-2.96-2.2-.12-.05-.24-.09-.35-.11-.11-.03-.24-.07-.36-.1-.92-.22-1.91-.23-2.89,0-.1,.03-.21,.05-.29,.08-.13,.03-.24,.07-.37,.11-.85,.31-1.63,.78-2.27,1.4-.12,.12-.23,.23-.33,.35-.24,.25-.45,.54-.64,.85-.08,.11-.16,.24-.2,.36-.15,.26-.28,.56-.39,.87-.05,.13-.09,.24-.11,.35-.03,.1-.06,.19-.1,.35-.11,.46-.17,.94-.17,1.44s.05,.96,.17,1.42c.03,.12,.06,.24,.09,.33,.03,.13,.07,.25,.11,.36,.25,.72,.65,1.4,1.15,1.99,.21,.24,.44,.48,.69,.69,1.13,.99,2.6,1.53,4.12,1.53,3.48,0,6.31-2.83,6.31-6.31,0-.9-.18-1.75-.54-2.55Zm-5.77,8.21c-1.37,0-2.68-.49-3.7-1.37-.22-.19-.43-.39-.62-.62-.45-.53-.8-1.13-1.04-1.8-.03-.09-.06-.17-.1-.3-.03-.1-.05-.2-.08-.31-.1-.41-.15-.85-.15-1.27s.05-.88,.16-1.33c.03-.09,.04-.17,.08-.28,.03-.1,.05-.19,.1-.3,.1-.29,.22-.55,.37-.81,.04-.1,.1-.19,.17-.3,.17-.28,.36-.53,.57-.76,.1-.11,.2-.22,.31-.32,.56-.54,1.26-.98,2.03-1.25,.1-.04,.19-.07,.31-.1,.09-.03,.18-.05,.3-.08,.41-.1,.85-.15,1.29-.15s.86,.05,1.27,.15c.1,.03,.21,.05,.33,.09,.1,.03,.18,.05,.29,.1,1.05,.37,1.98,1.05,2.67,1.98,.24,.32,.44,.68,.61,1.07,.32,.72,.49,1.49,.49,2.29,0,3.12-2.54,5.66-5.66,5.66Z"/></g><path class="cls-4" d="M23.03,26.11l-2.92-2.79c-.17-.17-.18-.44-.01-.62,.17-.17,.44-.18,.62-.01l2.3,2.2,4.24-4.24c.17-.17,.45-.17,.62,0s.17,.45,0,.62l-4.84,4.84Z"/></g><path class="cls-4" d="M8.09,2.8v.65h5.73v-.65h-5.73Zm21.31,2.88c-.03-.17-.07-.34-.12-.5-.13-.42-.34-.81-.62-1.15-.07-.08-.14-.16-.22-.24-.1-.11-.23-.21-.35-.31-.1-.08-.21-.15-.32-.22-.13-.08-.26-.15-.41-.21-.17-.07-.37-.13-.57-.17-.24-.06-.49-.09-.75-.09h-2.39v.65h2.39c.76,0,1.44,.31,1.94,.8,.06,.06,.12,.13,.17,.19,.11,.13,.22,.28,.3,.44h0c.12,.24,.22,.49,.28,.75h0c.02,.1,.03,.18,.04,.28,.02,.1,.02,.19,.02,.28v12.12c.24,.23,.45,.48,.65,.74V6.19c0-.17,0-.34-.04-.51ZM15.88,2.8v.65h5.73v-.65h-5.73Zm2.4,24.33H3.39c-1.51,0-2.74-1.23-2.74-2.74V6.19c0-1.51,1.22-2.74,2.74-2.74h2.65v-.65H3.39c-.24,0-.46,.03-.68,.07-.33,.07-.65,.18-.93,.34-.2,.1-.37,.23-.54,.37-.76,.62-1.24,1.56-1.24,2.62V24.39c0,1.87,1.52,3.39,3.39,3.39h15.4c-.19-.21-.36-.43-.51-.65Z"/><g><path class="cls-2" d="M29.11,6.19v3.28H.32v-3.28c0-1.69,1.37-3.07,3.07-3.07h2.65v.88c0,.57,.45,1.03,1.02,1.03s1.03-.46,1.03-1.03v-.88h5.73v.88c0,.57,.46,1.03,1.03,1.03s1.03-.46,1.03-1.03v-.88h5.73v1.17c0,.57,.46,1.02,1.03,1.02s1.02-.45,1.02-1.02v-1.17h2.39c1.7,0,3.07,1.38,3.07,3.07Z"/><path class="cls-4" d="M8.09,2.8v.65h5.73v-.65h-5.73Zm21.31,2.88c-.03-.17-.07-.34-.12-.5-.13-.42-.34-.81-.62-1.15-.07-.08-.14-.16-.22-.24-.1-.11-.23-.21-.35-.31-.1-.08-.21-.15-.32-.22-.13-.08-.26-.15-.41-.21-.17-.07-.37-.13-.57-.17-.24-.06-.49-.09-.75-.09h-2.39v.65h2.39c.76,0,1.44,.31,1.94,.8,.06,.06,.12,.13,.17,.19,.11,.13,.22,.28,.3,.44h0c.12,.24,.22,.49,.28,.75h0c.02,.1,.03,.18,.04,.28,0,.09,0,.18,0,.28v2.96H.65v-2.96c0-1.51,1.22-2.74,2.74-2.74h2.65v-.65H3.39c-.24,0-.46,.03-.68,.07-.33,.07-.65,.18-.93,.34-.2,.1-.37,.23-.54,.37-.76,.62-1.24,1.56-1.24,2.62v3.61H29.44v-3.61c0-.17-.02-.35-.03-.51Zm-7.79-2.22v-.65h-5.73v.65h5.73Z"/></g><g><g><path class="cls-1" d="M7.06,.32c-.74,0-1.35,.61-1.35,1.36v2.32c0,.75,.61,1.35,1.35,1.35s1.36-.6,1.36-1.35V1.68c0-.75-.61-1.36-1.36-1.36Zm1.03,3.68c0,.57-.45,1.03-1.03,1.03s-1.02-.46-1.02-1.03V1.68c0-.57,.45-1.03,1.02-1.03s1.03,.46,1.03,1.03v2.32Z"/><path class="cls-4" d="M7.06,0c-.92,0-1.67,.75-1.67,1.68v2.32c0,.92,.75,1.68,1.67,1.68s1.68-.76,1.68-1.68V1.68c0-.93-.75-1.68-1.68-1.68Zm1.03,4c0,.57-.45,1.03-1.03,1.03s-1.02-.46-1.02-1.03V1.68c0-.57,.45-1.03,1.02-1.03s1.03,.46,1.03,1.03v2.32Z"/></g><g><path class="cls-1" d="M14.85,.32c-.75,0-1.35,.61-1.35,1.36v2.32c0,.75,.6,1.35,1.35,1.35s1.35-.6,1.35-1.35V1.68c0-.75-.6-1.36-1.35-1.36Zm1.03,3.68c0,.57-.46,1.03-1.03,1.03s-1.03-.46-1.03-1.03V1.68c0-.57,.46-1.03,1.03-1.03s1.03,.46,1.03,1.03v2.32Z"/><path class="cls-4" d="M14.85,0c-.92,0-1.68,.75-1.68,1.68v2.32c0,.92,.76,1.68,1.68,1.68s1.68-.76,1.68-1.68V1.68c0-.93-.76-1.68-1.68-1.68Zm1.03,4c0,.57-.46,1.03-1.03,1.03s-1.03-.46-1.03-1.03V1.68c0-.57,.46-1.03,1.03-1.03s1.03,.46,1.03,1.03v2.32Z"/></g><g><path class="cls-1" d="M22.63,.61c-.75,0-1.36,.6-1.36,1.35v2.33c0,.74,.61,1.35,1.36,1.35s1.35-.61,1.35-1.35V1.96c0-.75-.61-1.35-1.35-1.35Zm1.02,3.68c0,.57-.46,1.02-1.02,1.02s-1.03-.45-1.03-1.02V1.96c0-.57,.46-1.03,1.03-1.03s1.02,.46,1.02,1.03v2.33Z"/><path class="cls-4" d="M22.63,.28c-.93,0-1.68,.76-1.68,1.68v2.33c0,.92,.75,1.67,1.68,1.67s1.67-.75,1.67-1.67V1.96c0-.92-.75-1.68-1.67-1.68Zm1.02,4.01c0,.57-.46,1.02-1.02,1.02s-1.03-.45-1.03-1.02V1.96c0-.57,.46-1.03,1.03-1.03s1.02,.46,1.02,1.03v2.33Z"/></g></g><g><g><g><rect class="cls-3" x="3.79" y="11.83" width="3.37" height="3.37" rx=".64" ry=".64"/><path class="cls-4" d="M6.61,11.5h-2.26c-.49,0-.88,.4-.88,.88v2.26c0,.49,.39,.88,.88,.88h2.26c.48,0,.88-.39,.88-.88v-2.26c0-.48-.4-.88-.88-.88Zm.23,3.14c0,.13-.1,.23-.23,.23h-2.26c-.13,0-.23-.1-.23-.23v-2.26c0-.12,.1-.23,.23-.23h2.26c.12,0,.23,.1,.23,.23v2.26Z"/></g><g><rect class="cls-3" x="9.95" y="11.83" width="3.37" height="3.37" rx=".64" ry=".64"/><path class="cls-4" d="M12.76,11.5h-2.25c-.49,0-.89,.4-.89,.88v2.26c0,.49,.4,.88,.89,.88h2.25c.49,0,.88-.39,.88-.88v-2.26c0-.48-.39-.88-.88-.88Zm.23,3.14c0,.13-.1,.23-.23,.23h-2.25c-.13,0-.24-.1-.24-.23v-2.26c0-.12,.1-.23,.24-.23h2.25c.13,0,.23,.1,.23,.23v2.26Z"/></g><g><rect class="cls-3" x="16.12" y="11.83" width="3.37" height="3.37" rx=".64" ry=".64"/><path class="cls-4" d="M18.93,11.5h-2.26c-.48,0-.88,.4-.88,.88v2.26c0,.49,.4,.88,.88,.88h2.26c.49,0,.88-.39,.88-.88v-2.26c0-.48-.39-.88-.88-.88Zm.23,3.14c0,.13-.1,.23-.23,.23h-2.26c-.12,0-.23-.1-.23-.23v-2.26c0-.12,.1-.23,.23-.23h2.26c.13,0,.23,.1,.23,.23v2.26Z"/></g><g><rect class="cls-3" x="22.28" y="11.83" width="3.37" height="3.37" rx=".64" ry=".64"/><path class="cls-4" d="M25.09,11.5h-2.26c-.49,0-.88,.4-.88,.88v2.26c0,.49,.39,.88,.88,.88h2.26c.49,0,.88-.39,.88-.88v-2.26c0-.48-.39-.88-.88-.88Zm.23,3.14c0,.13-.1,.23-.23,.23h-2.26c-.12,0-.23-.1-.23-.23v-2.26c0-.12,.1-.23,.23-.23h2.26c.12,0,.23,.1,.23,.23v2.26Z"/></g></g><g><g><rect class="cls-3" x="3.79" y="16.69" width="3.37" height="3.37" rx=".64" ry=".64"/><path class="cls-4" d="M6.61,16.37h-2.26c-.49,0-.88,.39-.88,.88v2.26c0,.48,.39,.88,.88,.88h2.26c.48,0,.88-.4,.88-.88v-2.26c0-.49-.4-.88-.88-.88Zm.23,3.14c0,.12-.1,.23-.23,.23h-2.26c-.13,0-.23-.1-.23-.23v-2.26c0-.13,.1-.23,.23-.23h2.26c.12,0,.23,.1,.23,.23v2.26Z"/></g><g><rect class="cls-3" x="9.95" y="16.69" width="3.37" height="3.37" rx=".64" ry=".64"/><path class="cls-4" d="M12.76,16.37h-2.25c-.49,0-.89,.39-.89,.88v2.26c0,.48,.4,.88,.89,.88h2.25c.49,0,.88-.4,.88-.88v-2.26c0-.49-.39-.88-.88-.88Zm.23,3.14c0,.12-.1,.23-.23,.23h-2.25c-.13,0-.24-.1-.24-.23v-2.26c0-.13,.1-.23,.24-.23h2.25c.13,0,.23,.1,.23,.23v2.26Z"/></g><g><path class="cls-3" d="M19.48,17.24v.75c-.11,.1-.23,.2-.33,.31-.44,.42-.82,.9-1.13,1.43-.06,.1-.11,.21-.17,.32h-1.18c-.31,0-.55-.24-.55-.55v-2.26c0-.31,.24-.56,.55-.56h2.26c.31,0,.56,.25,.56,.56Z"/><path class="cls-4" d="M18.93,16.37h-2.26c-.48,0-.88,.39-.88,.88v2.26c0,.48,.4,.88,.88,.88h1.02c.04-.11,.1-.23,.16-.33,.06-.11,.11-.22,.17-.32h-1.35c-.12,0-.23-.1-.23-.23v-2.26c0-.13,.1-.23,.23-.23h2.26c.13,0,.23,.1,.23,.23v1.05c.1-.1,.22-.21,.33-.31,.1-.09,.21-.17,.32-.26v-.49c0-.49-.39-.88-.88-.88Z"/></g></g><g><g><rect class="cls-3" x="3.79" y="21.55" width="3.37" height="3.37" rx=".64" ry=".64"/><path class="cls-4" d="M6.61,21.22h-2.26c-.49,0-.88,.39-.88,.88v2.26c0,.49,.39,.88,.88,.88h2.26c.48,0,.88-.39,.88-.88v-2.26c0-.49-.4-.88-.88-.88Zm.23,3.14c0,.12-.1,.23-.23,.23h-2.26c-.13,0-.23-.1-.23-.23v-2.26c0-.12,.1-.23,.23-.23h2.26c.12,0,.23,.1,.23,.23v2.26Z"/></g><g><rect class="cls-3" x="9.95" y="21.55" width="3.37" height="3.37" rx=".64" ry=".64"/><path class="cls-4" d="M12.76,21.22h-2.25c-.49,0-.89,.39-.89,.88v2.26c0,.49,.4,.88,.89,.88h2.25c.49,0,.88-.39,.88-.88v-2.26c0-.49-.39-.88-.88-.88Zm.23,3.14c0,.12-.1,.23-.23,.23h-2.25c-.13,0-.24-.1-.24-.23v-2.26c0-.12,.1-.23,.24-.23h2.25c.13,0,.23,.1,.23,.23v2.26Z"/></g><g><path class="cls-3" d="M17.2,21.87c-.09,.44-.13,.9-.13,1.36s.04,.92,.13,1.35c.03,.11,.05,.23,.08,.33h-.61c-.31,0-.55-.25-.55-.56v-2.26c0-.31,.24-.55,.55-.55h.61c-.03,.1-.05,.22-.08,.32Z"/><path class="cls-4" d="M17.2,24.59h-.53c-.12,0-.23-.1-.23-.23v-2.26c0-.12,.1-.23,.23-.23h.53c.03-.1,.04-.22,.08-.32,.03-.11,.05-.23,.09-.33h-.7c-.48,0-.88,.39-.88,.88v2.26c0,.49,.4,.88,.88,.88h.7c-.03-.1-.06-.21-.09-.32-.03-.1-.05-.22-.08-.33Z"/></g></g></g></g></g></svg>