<svg width="24" height="27" viewBox="0 0 24 27" fill="none" xmlns="http://www.w3.org/2000/svg">
<path d="M12 27C10.3511 27 8.79918 26.6815 7.34412 26.0445C5.88824 25.4075 4.61557 24.5396 3.52611 23.4407C2.43745 22.341 1.57761 21.0563 0.946565 19.5867C0.315522 18.1179 0 16.5514 0 14.887C0 12.7089 0.529262 10.6849 1.58779 8.81507C2.64631 6.9452 4.13231 5.46575 6.0458 4.37671C6.06616 4.76712 6.12234 5.17808 6.21435 5.60959C6.30555 6.0411 6.43257 6.55479 6.59542 7.15068C5.35369 8.03425 4.38188 9.15945 3.68 10.5263C2.9773 11.8923 2.62595 13.3459 2.62595 14.887C2.62595 17.5171 3.53669 19.7519 5.35817 21.5914C7.18046 23.43 9.3944 24.3493 12 24.3493C14.6056 24.3493 16.8195 23.43 18.6418 21.5914C20.4633 19.7519 21.374 17.5171 21.374 14.887C21.374 13.3459 21.0227 11.8923 20.32 10.5263C19.6181 9.15945 18.6463 8.03425 17.4046 7.15068C17.5674 6.55479 17.6949 6.0411 17.7869 5.60959C17.8781 5.17808 17.9338 4.76712 17.9542 4.37671C19.8473 5.46575 21.3284 6.9452 22.3976 8.81507C23.4659 10.6849 24 12.7089 24 14.887C24 16.5514 23.6845 18.1179 23.0534 19.5867C22.4224 21.0563 21.5625 22.341 20.4739 23.4407C19.3844 24.5396 18.117 25.4075 16.6718 26.0445C15.2265 26.6815 13.6692 27 12 27ZM12 22.0685C10.0051 22.0685 8.32081 21.3748 6.94717 19.9874C5.57272 18.6008 4.8855 16.9007 4.8855 14.887C4.8855 13.839 5.09924 12.8527 5.52672 11.9281C5.9542 11.0034 6.54453 10.2021 7.29771 9.52397C7.4402 9.93493 7.5827 10.3714 7.72519 10.8333C7.86768 11.296 8.03053 11.8151 8.21374 12.3904C7.96946 12.7603 7.79155 13.161 7.68 13.5925C7.56763 14.024 7.51145 14.4555 7.51145 14.887C7.51145 16.1404 7.94911 17.2089 8.82443 18.0925C9.69974 18.976 10.7583 19.4178 12 19.4178C13.2417 19.4178 14.3003 18.976 15.1756 18.0925C16.0509 17.2089 16.4885 16.1404 16.4885 14.887C16.4885 14.4555 16.4328 14.0289 16.3212 13.6073C16.2089 13.1864 16.0204 12.7808 15.7557 12.3904C15.9593 11.8356 16.112 11.3885 16.2137 11.049C16.3155 10.7104 16.4784 10.1918 16.7023 9.49315C17.4758 10.1712 18.071 10.9775 18.4879 11.9121C18.9056 12.8474 19.1145 13.839 19.1145 14.887C19.1145 16.9007 18.4273 18.6008 17.0528 19.9874C15.6792 21.3748 13.9949 22.0685 12 22.0685ZM10.7481 10.6644C9.9542 8.23973 9.44041 6.57534 9.20672 5.67123C8.97221 4.76712 8.85496 3.93493 8.85496 3.17466C8.85496 2.2911 9.1603 1.5411 9.77099 0.924657C10.3817 0.308219 11.1247 0 12 0C12.8753 0 13.6183 0.308219 14.229 0.924657C14.8397 1.5411 15.145 2.2911 15.145 3.17466C15.145 3.93493 15.0282 4.76712 14.7945 5.67123C14.56 6.57534 14.0458 8.23973 13.2519 10.6644H10.7481ZM12 17.4452C11.3079 17.4452 10.7127 17.1933 10.2143 16.6895C9.71521 16.1864 9.46565 15.5856 9.46565 14.887C9.46565 14.1884 9.71521 13.5871 10.2143 13.0833C10.7127 12.5803 11.3079 12.3288 12 12.3288C12.6921 12.3288 13.2877 12.5803 13.7869 13.0833C14.2852 13.5871 14.5343 14.1884 14.5343 14.887C14.5343 15.5856 14.2852 16.1864 13.7869 16.6895C13.2877 17.1933 12.6921 17.4452 12 17.4452Z" fill="white"/>
</svg>
