<svg width="60" height="60" viewBox="0 0 60 60" fill="none" xmlns="http://www.w3.org/2000/svg">
<path d="M28.0312 44.5833H32.4062V27.0833H28.0312V44.5833ZM30 21.6875C30.6806 21.6875 31.2517 21.4688 31.7135 21.0313C32.1753 20.5938 32.4062 20.0347 32.4062 19.3542C32.4062 18.6736 32.1753 18.0903 31.7135 17.6042C31.2517 17.1181 30.6806 16.875 30 16.875C29.3194 16.875 28.7483 17.1181 28.2865 17.6042C27.8247 18.0903 27.5937 18.6736 27.5937 19.3542C27.5937 20.0347 27.8247 20.5938 28.2865 21.0313C28.7483 21.4688 29.3194 21.6875 30 21.6875ZM30 59.1667C26.0139 59.1667 22.2465 58.401 18.6979 56.8698C15.1493 55.3385 12.0503 53.2483 9.40104 50.599C6.75173 47.9497 4.66145 44.8507 3.1302 41.3021C1.59895 37.7535 0.833328 33.9618 0.833328 29.9271C0.833328 25.941 1.59895 22.1736 3.1302 18.625C4.66145 15.0764 6.75173 11.9896 9.40104 9.36459C12.0503 6.73959 15.1493 4.66146 18.6979 3.13021C22.2465 1.59896 26.0382 0.833336 30.0729 0.833336C34.059 0.833336 37.8264 1.59896 41.375 3.13021C44.9236 4.66146 48.0104 6.73959 50.6354 9.36459C53.2604 11.9896 55.3385 15.0764 56.8698 18.625C58.401 22.1736 59.1667 25.9653 59.1667 30C59.1667 33.9861 58.401 37.7535 56.8698 41.3021C55.3385 44.8507 53.2604 47.9497 50.6354 50.599C48.0104 53.2483 44.9236 55.3385 41.375 56.8698C37.8264 58.401 34.0347 59.1667 30 59.1667ZM30.0729 54.7917C36.9271 54.7917 42.7604 52.3733 47.5729 47.5365C52.3854 42.6997 54.7917 36.8299 54.7917 29.9271C54.7917 23.0729 52.3854 17.2396 47.5729 12.4271C42.7604 7.61459 36.9028 5.20834 30 5.20834C23.1458 5.20834 17.3003 7.61459 12.4635 12.4271C7.62673 17.2396 5.20833 23.0972 5.20833 30C5.20833 36.8542 7.62673 42.6997 12.4635 47.5365C17.3003 52.3733 23.1701 54.7917 30.0729 54.7917Z" fill="#8A969F"/>
</svg>
