<?xml version="1.0" encoding="UTF-8"?><svg id="Layer_2" xmlns="http://www.w3.org/2000/svg" viewBox="0 0 26.37 30.03"><defs><style>.cls-1{fill:#388bd6;}</style></defs><g id="Layer_1-2"><g><g><path class="cls-1" d="M14.12,.86c-.13-.24-.34-.42-.62-.54-.07-.02-.16-.04-.28-.04-.11,0-.2,.01-.26,.03h-.02s-.03,0-.03,0c-.29,.11-.51,.28-.65,.5s-.2,.5-.19,.84c0,.18,.01,.37,.01,.56h.3c0-.19,0-.38-.01-.57,0-.27,.03-.48,.14-.65,.1-.17,.26-.29,.48-.38,.05-.01,.11-.03,.18-.03,.1,0,.18,.01,.24,.03,.1,.04,.25,.13,.38,.29,.03,.04,.06,.09,.09,.13,.1,.19,.14,.42,.13,.7,0,.16,0,.32-.01,.48h.3c0-.16,0-.31,.01-.47,.01-.35-.05-.64-.18-.87Zm11.87,21.95c-.14-.4-.4-.78-.78-1.12-.99-.88-1.73-1.88-2.22-3.01-.49-1.12-.73-2.36-.72-3.71v-.29s0-.29,0-.29c0-.58,.01-1.17,0-1.76,0-.59-.03-1.18-.07-1.77-.14-1.8-.84-3.49-1.95-4.85-1.1-1.36-2.61-2.41-4.37-2.94-.19-.06-.38-.11-.57-.15-.19-.05-.38-.09-.58-.13-.07-.02-.14-.03-.22-.05-.07-.01-.14-.03-.22-.05,0-.11,0-.22,0-.32s0-.21,0-.32v-.42h-.3v.42c0,.13,0,.25,0,.38v.5h.06s.06,.03,.06,.03c.02,0,.04,0,.05,.01,0,0,.01,0,.02,0,.07,.02,.14,.03,.21,.05,.09,.02,.19,.04,.28,.06,.2,.04,.39,.08,.58,.13,.19,.04,.37,.09,.56,.15,1.69,.51,3.15,1.52,4.22,2.84,1.07,1.32,1.75,2.95,1.89,4.69,.04,.58,.07,1.17,.07,1.75,0,.58,0,1.17,0,1.75v.29s0,.29,0,.29c-.01,1.4,.24,2.68,.74,3.84,.51,1.16,1.28,2.2,2.3,3.1,.34,.3,.57,.63,.69,.98,.12,.36,.13,.74,.03,1.15-.09,.38-.26,.7-.5,.95-.24,.25-.55,.43-.94,.55-.1,.03-.21,.05-.33,.06-.12,.01-.25,.02-.4,.02-.67,0-1.35,0-2.02,0h-3.78l-.04,.15-.04,.15h0c-.02,.06-.04,.12-.05,.18-.02,.06-.04,.12-.06,.18-.32,.95-.92,1.75-1.7,2.3-.78,.56-1.73,.87-2.75,.87-.02,0-.04,0-.06,0h-.06c-1-.03-1.95-.4-2.71-1-.76-.61-1.33-1.46-1.6-2.45,0-.03-.01-.06-.03-.08-.04-.11-.09-.18-.16-.23-.06-.04-.13-.06-.2-.06-.03,0-.07,0-.11,0h0c-.95,0-1.89,0-2.81,0s-1.82,0-2.69,0c-.57,0-1.08-.2-1.45-.54-.38-.34-.62-.82-.67-1.39-.03-.35,.02-.68,.15-.98,.13-.3,.34-.58,.63-.82,.43-.37,.82-.77,1.16-1.21,.35-.43,.65-.9,.9-1.4,.33-.63,.57-1.29,.74-1.98,.16-.69,.24-1.41,.24-2.15,0-.17,0-.34,0-.51s0-.34,0-.51c0-.51-.01-1.02,0-1.53,0-.51,.02-1.03,.06-1.53,.14-1.67,.64-3.11,1.49-4.34,.84-1.22,2.04-2.22,3.58-2.99,.39-.19,.8-.35,1.25-.48,.45-.13,.94-.22,1.49-.29h.06s.06-.02,.06-.02v-.54c0-.12,0-.23,0-.34,0-.11,0-.23,0-.34v-.13h-.3v.12c0,.11,0,.23,0,.34,0,.12,0,.23,0,.35v.28c-.53,.07-1.02,.17-1.47,.3-.45,.13-.85,.29-1.24,.48-1.59,.79-2.82,1.82-3.7,3.08-.87,1.26-1.39,2.76-1.53,4.48-.04,.51-.06,1.03-.06,1.55,0,.52,0,1.04,0,1.54,0,.17,0,.34,0,.51,0,.17,0,.34,0,.51,0,.71-.07,1.41-.23,2.07-.16,.67-.39,1.31-.71,1.92-.25,.48-.54,.93-.87,1.35-.33,.42-.71,.81-1.12,1.17-.33,.28-.56,.59-.71,.94-.15,.34-.2,.71-.17,1.11,.06,.64,.33,1.19,.76,1.58s1,.61,1.65,.62c.87,0,1.78,0,2.69,0,.48,0,.96,0,1.44,0,.45,0,.91,0,1.37,0,.05,0,.08,0,.11,0,.02,0,.04,0,.05,.02,.03,.02,.04,.06,.06,.14,.28,1.05,.89,1.96,1.7,2.6,.81,.65,1.81,1.04,2.88,1.07h.07s.04,0,.06,0c1.08,0,2.09-.34,2.92-.93,.83-.59,1.47-1.43,1.81-2.45,.02-.06,.04-.12,.06-.18,.02-.06,.04-.12,.05-.19v-.04s.03-.04,.03-.04h3.55c.67,0,1.35,0,2.02,0,.16,0,.3,0,.44-.03,.13-.01,.25-.04,.37-.07,.43-.13,.79-.34,1.07-.63,.27-.29,.47-.65,.57-1.08,.12-.47,.1-.9-.03-1.31Z"/><path class="cls-1" d="M13.13,30.03h-.14c-1.1-.03-2.18-.43-3.05-1.13-.86-.69-1.49-1.65-1.78-2.71h-1.34c-1.42,.01-2.81,0-4.14,0-.7,0-1.35-.25-1.83-.69-.49-.44-.79-1.06-.85-1.75-.04-.44,.02-.86,.19-1.24,.16-.38,.43-.73,.78-1.03,.39-.34,.76-.72,1.08-1.13,.32-.41,.61-.85,.85-1.31,.3-.59,.53-1.21,.68-1.86,.15-.64,.23-1.31,.23-2.01,0-.17,0-.34,0-.5v-.51c-.01-.51-.02-1.03-.01-1.55,0-.59,.03-1.1,.07-1.57,.15-1.76,.68-3.32,1.58-4.61,.9-1.3,2.18-2.36,3.8-3.17,.41-.2,.83-.36,1.28-.5,.4-.11,.82-.2,1.27-.28v-.05c0-.12,0-.24,0-.35v-.12c0-.1,0-.2,0-.3-.01-.39,.06-.73,.23-.99,.17-.27,.43-.47,.78-.61l.09-.02c.11-.02,.22-.03,.33-.03,.12,0,.24,.02,.35,.06,.37,.16,.62,.38,.77,.67,.1,.19,.17,.39,.2,.63v.02c.02,.11,.02,.23,.02,.36,0,.13,0,.25-.01,.38,0,.08,0,.16,0,.25v.11s.39,.09,.39,.09c.14,.03,.29,.06,.43,.1,.2,.05,.39,.1,.59,.16,1.77,.53,3.32,1.58,4.5,3.02,1.18,1.45,1.87,3.18,2.01,5,.05,.65,.07,1.3,.07,1.79,0,.59,0,1.19,0,1.77v.58c-.02,1.3,.22,2.52,.69,3.6,.48,1.09,1.2,2.07,2.16,2.91,.42,.37,.7,.78,.86,1.23h0c.15,.46,.17,.95,.04,1.46-.11,.47-.33,.88-.64,1.2-.32,.32-.71,.56-1.18,.7-.13,.04-.26,.07-.41,.08-.14,.02-.3,.03-.47,.03-.67,0-1.35,0-2.02,0h-3.35l-.02,.08c-.02,.05-.03,.11-.05,.16-.36,1.08-1.02,1.98-1.92,2.62-.89,.64-1.96,.98-3.07,.98Zm-4.97-4.67c.09,0,.15,0,.19,.01,.09,0,.2,.04,.3,.1,.13,.09,.22,.21,.27,.37l.03,.08c.25,.93,.77,1.73,1.51,2.33,.73,.59,1.63,.92,2.54,.95h.1s0,0,0,0c.96,0,1.85-.28,2.61-.82,.75-.54,1.31-1.29,1.6-2.17,.02-.05,.03-.11,.05-.16l.2-.68h3.97c.67,0,1.34,0,2.02,0,.14,0,.26,0,.37-.02,.11-.01,.2-.03,.29-.05,.34-.1,.61-.26,.82-.48,.21-.21,.35-.49,.43-.82,.09-.36,.08-.69-.03-1-.11-.31-.31-.6-.61-.87-1.05-.93-1.84-2-2.37-3.2-.52-1.19-.78-2.52-.77-3.95v-.58c.01-.58,.02-1.16,.01-1.74,0-.63-.03-1.2-.07-1.74-.13-1.65-.76-3.22-1.83-4.54-1.07-1.31-2.48-2.27-4.09-2.75-.18-.05-.35-.1-.54-.14-.19-.05-.37-.09-.57-.13l-.08-.02c-.07-.02-.14-.03-.21-.05-.06-.01-.13-.03-.2-.05h0s-.06,0-.1-.02l-.21-.05-.07-.23V1.42c-.02-.11-.05-.2-.09-.28-.02-.03-.04-.06-.06-.09-.09-.12-.2-.18-.28-.22-.02,0-.06-.02-.11,0-.04,0-.08,0-.12,.02-.15,.06-.26,.15-.33,.26-.04,.07-.07,.16-.09,.26v.58c0,.08,0,.16,0,.24v1.01s-.3,.05-.3,.05c-.62,.08-1.1,.17-1.52,.29-.44,.12-.83,.27-1.2,.46-1.49,.74-2.67,1.72-3.48,2.9-.82,1.18-1.3,2.6-1.44,4.21-.04,.45-.06,.94-.06,1.51,0,.48,0,.95,0,1.42v.61c.01,.17,.01,.34,.01,.51,0,.76-.08,1.5-.25,2.21-.17,.71-.42,1.4-.76,2.04-.27,.52-.58,1-.93,1.44-.35,.44-.75,.86-1.19,1.24-.26,.22-.44,.47-.56,.73-.11,.26-.15,.55-.13,.85,.04,.49,.24,.91,.58,1.21,.34,.31,.77,.47,1.27,.47,1.74,0,3.58,0,5.47,0h0Zm9.83,.65h-.03s.03,0,.03,0h0Z"/></g><g><rect class="cls-1" x="6.82" y="25.64" width="12.09" height=".3"/><rect class="cls-1" x="6.55" y="25.37" width="12.63" height=".83"/></g><g><path class="cls-1" d="M12.25,2.99l-.05-.29c.06,0,.12-.02,.18-.03,.06,0,.12-.02,.18-.02,.29-.03,.59-.04,.87-.04,.26,0,.52,.02,.78,.06l-.04,.29c-.25-.03-.51-.05-.75-.05-.28,0-.56,0-.84,.04-.06,0-.12,.01-.17,.02-.06,0-.11,.02-.17,.02Z"/><path class="cls-1" d="M12.03,3.29l-.13-.82,.64-.09c.31-.03,.62-.05,.91-.04,.27,0,.54,.03,.81,.06l.27,.03-.1,.83-.27-.03c-.24-.03-.49-.05-.72-.05-.27,0-.54,0-.81,.04l-.59,.08Z"/></g></g></g></svg>