<svg width="20" height="20" viewBox="0 0 20 20" fill="none" xmlns="http://www.w3.org/2000/svg">
<path d="M16.9992 10.8354C16.5997 12.1102 16.2022 13.386 15.7996 14.66C15.4854 15.6542 15.113 15.9524 14.152 15.9939C14.0397 15.9986 13.9274 16.0004 13.8152 15.9999C10.9014 15.9999 7.98774 16.0008 5.07404 15.9965C4.85063 15.9965 4.62605 15.9691 4.4042 15.937C3.87952 15.8607 3.51252 15.548 3.3255 15.0065C3.13065 14.4428 2.95185 13.8726 2.76874 13.3046C2.5469 12.6153 2.32427 11.9265 2.10829 11.2351C1.93927 10.6936 1.94201 10.1667 2.30549 9.71346C2.42795 9.56096 2.58993 9.43459 2.75426 9.33734C3.07118 9.14971 3.40023 8.9865 3.7285 8.82414C3.82005 8.77916 3.86035 8.72133 3.87913 8.61638C4.05089 7.66923 4.21248 6.71909 4.40655 5.77751C4.61822 4.75325 5.47625 4.00873 6.43405 4.0053C8.58128 3.99802 10.7289 3.99845 12.8765 4.0053C13.6352 4.00787 14.1336 4.47266 14.4134 5.19834C14.5742 5.61558 14.6509 6.07523 14.7405 6.5216C14.8817 7.225 14.9991 7.93397 15.1345 8.63908C15.1466 8.70334 15.2045 8.77745 15.2593 8.80787C15.5113 8.94795 15.7668 9.08032 16.0258 9.20369C16.516 9.43673 16.8846 9.785 17 10.386V10.835L16.9992 10.8354ZM3.65572 14.5589C3.73828 15.0703 3.99494 15.3706 4.43941 15.458C4.63504 15.4966 4.83654 15.515 5.03569 15.5154C7.97874 15.5193 10.9218 15.5193 13.8648 15.5171C14.0597 15.5171 14.2549 15.5039 14.449 15.4824C14.9533 15.4263 15.2581 15.1132 15.3489 14.5589C15.2898 14.5589 15.2327 14.5589 15.1756 14.5589C13.5014 14.5589 11.8276 14.5589 10.1534 14.5589C9.97847 14.5589 9.88261 14.4736 9.88222 14.3233C9.88144 14.1716 9.97769 14.0825 10.1506 14.0808C10.3752 14.0786 10.5998 14.0804 10.824 14.0804C12.3421 14.0804 13.8598 14.0791 15.3778 14.0834C15.4897 14.0834 15.5418 14.0495 15.5719 13.93C15.6142 13.7608 15.6772 13.5976 15.73 13.4314C15.9894 12.6153 16.259 11.8031 16.5035 10.9815C16.6663 10.4353 16.5047 10.021 16.0598 9.76786C14.3414 8.7903 12.5291 8.15459 10.592 7.97681C10.4413 7.9631 10.2895 7.95882 10.1397 7.93783C10.0113 7.91983 9.93426 7.8106 9.94247 7.6838C9.95069 7.55614 10.0407 7.46918 10.1702 7.46447C10.1995 7.46361 10.2289 7.46575 10.2578 7.46747C11.5169 7.54286 12.7408 7.81574 13.9349 8.2544C14.172 8.34136 14.4071 8.43646 14.654 8.53199C14.6524 8.49258 14.654 8.47159 14.6501 8.45145C14.5202 7.74506 14.3883 7.03952 14.2604 6.33269C14.1912 5.95015 14.1262 5.56675 13.9419 5.22404C13.6817 4.73997 13.3139 4.47866 12.7826 4.4808C10.6839 4.48937 8.5852 4.48295 6.48648 4.48509C5.66562 4.48594 4.98835 5.08011 4.81541 5.95786C4.69099 6.58886 4.58066 7.22329 4.46446 7.85643C4.42416 8.07705 4.38503 8.29809 4.34356 8.53028C4.3819 8.52128 4.39677 8.51999 4.41007 8.51443C5.62063 7.99909 6.8707 7.65981 8.16381 7.51673C8.43534 7.48674 8.70883 7.47132 8.98154 7.45547C9.12904 7.4469 9.22921 7.54072 9.23664 7.67866C9.24368 7.80931 9.15956 7.90827 9.02106 7.93054C8.98232 7.93654 8.9432 7.93997 8.90446 7.94168C7.69352 7.9978 6.51504 8.2484 5.36279 8.65493C4.52588 8.95009 3.7195 9.32492 2.94011 9.77001C2.56372 9.98462 2.39039 10.3419 2.45417 10.769C2.47295 10.8945 2.50386 11.0196 2.5422 11.14C2.83721 12.0665 3.13848 12.9914 3.42918 13.9197C3.47027 14.0508 3.52661 14.0834 3.64555 14.0834C5.41717 14.0795 7.18879 14.0804 8.9608 14.0812C9.0191 14.0812 9.07975 14.0774 9.1353 14.0932C9.24838 14.1253 9.30863 14.2114 9.29846 14.3417C9.28829 14.471 9.21825 14.5439 9.10087 14.5571C9.05236 14.5627 9.00345 14.5593 8.95454 14.5593C7.24631 14.5593 5.53807 14.5593 3.82983 14.5593H3.65611L3.65572 14.5589Z" fill="#232A2F" stroke="#232A2F" stroke-width="0.5"/>
<path d="M10.1152 11.1168C10.1152 11.2692 10.1166 11.4041 10.115 11.5393C10.1113 11.8309 9.94408 11.9975 9.65548 11.9992C9.5411 11.9997 9.42644 12.0008 9.31206 11.9989C9.0666 11.9944 8.89655 11.8284 8.88765 11.5791C8.88236 11.4306 8.88681 11.2817 8.88681 11.1168C8.75072 11.1168 8.6241 11.1168 8.49747 11.1168C8.161 11.1165 8.0007 10.956 8.00042 10.6194C8.00042 10.5187 7.99931 10.4183 8.0007 10.3176C8.00432 10.0683 8.17631 9.89417 8.42706 9.88889C8.57539 9.88583 8.72373 9.88833 8.88598 9.88833C8.88598 9.74646 8.88542 9.61571 8.88598 9.48496C8.88737 9.16283 9.05073 9.00065 9.37468 9.00037C9.4718 9.00037 9.56893 8.99954 9.66606 9.00037C9.93434 9.00315 10.108 9.17229 10.1144 9.44157C10.118 9.58622 10.115 9.73088 10.115 9.88777C10.2666 9.88777 10.4047 9.88694 10.5424 9.88777C10.8307 9.89 10.9988 10.0597 10.9997 10.349C11 10.453 11.0002 10.5571 10.9997 10.6611C10.998 10.9399 10.8243 11.1134 10.5435 11.1157C10.4055 11.1168 10.2675 11.1157 10.1152 11.1157V11.1168ZM8.73319 10.8044C8.82002 10.8044 8.90657 10.8035 8.9934 10.8044C9.14897 10.8058 9.19656 10.8533 9.19768 11.0114C9.19879 11.1847 9.19684 11.3582 9.19851 11.5316C9.19962 11.6581 9.22745 11.6854 9.3513 11.6865C9.44843 11.6873 9.54555 11.6871 9.64268 11.6865C9.77293 11.6857 9.80131 11.6584 9.80243 11.5274C9.80382 11.3783 9.8027 11.2292 9.8027 11.0801C9.8027 10.8278 9.8258 10.8044 10.0735 10.8041C10.2296 10.8041 10.3857 10.8055 10.5419 10.8035C10.6501 10.8022 10.6855 10.7663 10.6869 10.66C10.6883 10.556 10.688 10.4519 10.6869 10.3479C10.6855 10.2319 10.6551 10.2016 10.5371 10.2007C10.3601 10.1996 10.1831 10.2013 10.0061 10.1999C9.85697 10.1988 9.80465 10.1476 9.80298 10.0002C9.80131 9.82323 9.80354 9.64631 9.80215 9.46939C9.80103 9.34782 9.76708 9.31416 9.64797 9.31277C9.55084 9.31166 9.45371 9.31194 9.35659 9.31277C9.2294 9.31388 9.19907 9.3442 9.19823 9.47467C9.19684 9.64798 9.19907 9.82157 9.1974 9.99487C9.19601 10.1487 9.14452 10.1988 8.98839 10.1996C8.80805 10.2007 8.62744 10.2007 8.4471 10.1996C8.3572 10.1991 8.31156 10.24 8.31212 10.3312C8.31295 10.4422 8.31379 10.5532 8.31184 10.6642C8.31017 10.7613 8.35887 10.8035 8.45183 10.8035C8.54561 10.8035 8.63912 10.8035 8.73291 10.8035L8.73319 10.8044Z" fill="#232A2F" stroke="#232A2F" stroke-width="0.3"/>
<path d="M9.73399 6.47276C9.2115 6.47276 8.68902 6.47276 8.16674 6.47276C8.14043 6.47276 8.10653 6.49002 8.08969 6.46435C8.05328 6.40879 8.00402 6.33471 8.00023 6.26022C7.99665 6.18656 8.03601 6.08808 8.06906 6.02915C8.08969 5.99254 8.13369 6.0018 8.16737 6.0018C9.2176 6.00053 10.2676 6.00095 11.3179 6.00095C11.3414 6.00095 11.3659 5.99675 11.3886 6.006C11.453 6.03252 11.4928 6.11249 11.4898 6.24675C11.4869 6.37933 11.4471 6.45761 11.3802 6.47108C11.3515 6.47697 11.3225 6.47319 11.2937 6.47319C10.7739 6.47319 10.2539 6.47319 9.7342 6.47319L9.73399 6.47276Z" fill="#232A2F" stroke="#232A2F" stroke-width="0.5"/>
</svg>
