<svg width="18" height="18" viewBox="0 0 18 18" fill="none" xmlns="http://www.w3.org/2000/svg">
<path d="M10.125 16.4813C8.725 16.4813 7.5625 15.9906 6.6375 15.0094C5.7125 14.0281 5.25 12.8563 5.25 11.4938V10.8375C4.1875 10.7 3.29688 10.2268 2.57812 9.41792C1.85938 8.60903 1.5 7.65723 1.5 6.5625V2.25H3.75V1.5H4.875V4.125H3.75V3.375H2.625V6.55644C2.625 7.44798 2.93438 8.20313 3.55313 8.82188C4.17188 9.44063 4.925 9.75 5.8125 9.75C6.7 9.75 7.45312 9.44063 8.07188 8.82188C8.69063 8.20313 9 7.44798 9 6.55644V3.375H7.875V4.125H6.75V1.5H7.875V2.25H10.125V6.5625C10.125 7.65723 9.76562 8.60903 9.04688 9.41792C8.32813 10.2268 7.4375 10.7 6.375 10.8375V11.4938C6.375 12.5563 6.72813 13.4656 7.43438 14.2219C8.14063 14.9781 9.0375 15.3563 10.125 15.3563C11.1375 15.3563 12.0156 14.9803 12.7594 14.2284C13.5031 13.4765 13.875 12.5635 13.875 11.4893V10.05C13.4375 9.925 13.0781 9.68125 12.7969 9.31875C12.5156 8.95625 12.375 8.5375 12.375 8.0625C12.375 7.48959 12.5757 7.00261 12.9772 6.60156C13.3787 6.20052 13.8662 6 14.4397 6C15.0132 6 15.5 6.20052 15.9 6.60156C16.3 7.00261 16.5 7.48959 16.5 8.0625C16.5 8.5375 16.3594 8.95625 16.0781 9.31875C15.7969 9.68125 15.4375 9.925 15 10.05V11.4938C15 12.8813 14.5219 14.0594 13.5656 15.0281C12.6094 15.9969 11.4625 16.4813 10.125 16.4813ZM14.4342 9C14.6989 9 14.9219 8.91047 15.1031 8.73141C15.2844 8.55236 15.375 8.33048 15.375 8.06578C15.375 7.80109 15.2855 7.57813 15.1064 7.39688C14.9274 7.21563 14.7055 7.125 14.4408 7.125C14.1761 7.125 13.9531 7.21453 13.7719 7.39359C13.5906 7.57264 13.5 7.79452 13.5 8.05922C13.5 8.32391 13.5895 8.54688 13.7686 8.72813C13.9476 8.90938 14.1695 9 14.4342 9Z" fill="#232A2F"/>
</svg>
