<svg width="20" height="22" viewBox="0 0 20 22" fill="none" xmlns="http://www.w3.org/2000/svg">
<path d="M14.125 20.375C14.125 20.6734 14.0065 20.9595 13.7955 21.1705C13.5845 21.3815 13.2984 21.5 13 21.5H6.99999C6.70162 21.5 6.41547 21.3815 6.20449 21.1705C5.99351 20.9595 5.87499 20.6734 5.87499 20.375C5.87499 20.0766 5.99351 19.7905 6.20449 19.5795C6.41547 19.3685 6.70162 19.25 6.99999 19.25H13C13.2984 19.25 13.5845 19.3685 13.7955 19.5795C14.0065 19.7905 14.125 20.0766 14.125 20.375ZM19.0281 16.8125C18.8644 17.0979 18.6282 17.3349 18.3434 17.4996C18.0585 17.6642 17.7352 17.7506 17.4062 17.75H2.59374C2.2645 17.7478 1.94159 17.6593 1.65717 17.4935C1.37276 17.3276 1.13676 17.0901 0.972699 16.8047C0.808633 16.5192 0.722223 16.1958 0.722077 15.8665C0.72193 15.5373 0.808051 15.2137 0.971862 14.9281C1.50624 14.0094 2.14374 12.2563 2.14374 9.125V8.75C2.14127 7.71673 2.34266 6.69311 2.73637 5.73778C3.13008 4.78246 3.70837 3.91418 4.43814 3.18267C5.16791 2.45116 6.0348 1.8708 6.98919 1.47481C7.94358 1.07882 8.96671 0.874997 9.99999 0.875H10.0562C14.3594 0.903125 17.8562 4.475 17.8562 8.83438V9.125C17.8562 12.2563 18.4937 14.0094 19.0281 14.9281C19.1935 15.2146 19.2806 15.5395 19.2806 15.8703C19.2806 16.2011 19.1935 16.526 19.0281 16.8125ZM16.7875 15.5C15.8219 13.475 15.6062 10.9531 15.6062 9.125V8.83438C15.6062 5.70312 13.1125 3.14375 10.0469 3.125H9.99999C9.26183 3.12375 8.53073 3.26854 7.84876 3.55101C7.16679 3.83348 6.54743 4.24807 6.02635 4.77089C5.50527 5.29372 5.09276 5.91445 4.81256 6.59736C4.53237 7.28027 4.39003 8.01186 4.39374 8.75V9.125C4.39374 10.9531 4.17811 13.475 3.21249 15.5H16.7875Z" fill="#8A969F"/>
</svg>
